<svg width="20" height="20" viewBox="0 0 20 20" fill="none" xmlns="http://www.w3.org/2000/svg">
<path fill-rule="evenodd" clip-rule="evenodd" d="M18.3217 18.3201C18.8232 17.8171 19.217 17.2125 19.4739 16.5495C19.72 15.9126 19.8892 15.1865 19.9385 14.122C19.9877 13.0559 20 12.7144 20 9.99923C20 7.28406 19.9877 6.94254 19.9385 5.87647C19.8892 4.81194 19.72 4.08584 19.4739 3.44897C19.2227 2.78185 18.8289 2.17759 18.3201 1.67833C17.8208 1.1696 17.2166 0.775867 16.5495 0.524575C15.9126 0.27844 15.1865 0.109222 14.122 0.0599954C13.0559 0.0107685 12.7144 0 9.99923 0C7.28405 0 6.94254 0.0107683 5.87647 0.0615337C4.81194 0.107684 4.08584 0.276902 3.44897 0.524575C2.78219 0.77644 2.17806 1.1701 1.67833 1.67833C1.1701 2.17806 0.77644 2.78219 0.524575 3.44897C0.27844 4.08584 0.109222 4.81194 0.0599954 5.87647C0.0107685 6.94254 0 7.28406 0 9.99923C0 12.7144 0.0107683 13.0559 0.0615337 14.122C0.107684 15.1865 0.276902 15.9126 0.524575 16.5495C0.776863 17.2171 1.17068 17.8202 1.67833 18.3201C2.17829 18.8278 2.78286 19.2216 3.44897 19.4739C4.08584 19.72 4.81194 19.8892 5.87647 19.9385C6.94254 19.9862 7.28405 19.9985 9.99923 19.9985C12.7144 19.9985 13.0559 19.9862 14.122 19.9369C15.1865 19.8908 15.9126 19.7216 16.5495 19.4739C17.2136 19.2168 17.8183 18.8239 18.3217 18.3201ZM1.53834 8.8224V11.1761C1.53527 12.439 1.53527 12.7667 1.56911 13.4836C1.60911 14.385 1.65833 15.0465 1.80909 15.545C1.9537 16.0249 2.11522 16.5141 2.64441 17.1018C3.1736 17.6909 3.68279 17.9571 4.33197 18.154C4.98269 18.3494 5.79955 18.3909 6.50873 18.4232C7.31175 18.4601 7.63172 18.4601 9.31775 18.4601H11.1376C12.4329 18.4617 12.759 18.4632 13.4851 18.4294C14.385 18.3878 15.0465 18.3386 15.5465 18.1894C16.0249 18.0448 16.5141 17.8817 17.1018 17.3541C17.6909 16.8249 17.9571 16.3141 18.154 15.6649C18.3494 15.0158 18.3924 14.1989 18.4247 13.4897C18.4601 12.6867 18.4601 12.3683 18.4601 10.6869V9.31775C18.4601 7.63172 18.4601 7.31328 18.4247 6.50873C18.3924 5.79955 18.3494 4.98269 18.154 4.33351C17.9586 3.68279 17.6925 3.1736 17.1018 2.64441C16.5126 2.11522 16.0249 1.9537 15.5465 1.80909C15.0465 1.65987 14.385 1.60911 13.4851 1.56911C12.7031 1.53697 11.9202 1.52671 11.1376 1.53834H9.31775C7.63172 1.53834 7.31175 1.53834 6.50873 1.57373C5.79955 1.60603 4.98269 1.6491 4.33197 1.84447C3.68279 2.04138 3.1736 2.30751 2.64441 2.8967C2.11522 3.48589 1.95216 3.97354 1.80909 4.4535C1.65833 4.95193 1.60911 5.61341 1.56911 6.51488C1.53527 7.23175 1.53527 7.55942 1.53834 8.8224ZM9.99923 6.53796C9.08124 6.53796 8.20086 6.90263 7.55174 7.55174C6.90263 8.20086 6.53796 9.08124 6.53796 9.99923C6.53796 10.9172 6.90263 11.7976 7.55174 12.4467C8.20086 13.0958 9.08124 13.4605 9.99923 13.4605C10.9172 13.4605 11.7976 13.0958 12.4467 12.4467C13.0958 11.7976 13.4605 10.9172 13.4605 9.99923C13.4605 9.08124 13.0958 8.20086 12.4467 7.55174C11.7976 6.90263 10.9172 6.53796 9.99923 6.53796ZM4.99962 9.99923C4.99962 8.67325 5.52636 7.40158 6.46397 6.46397C7.40158 5.52636 8.67325 4.99962 9.99923 4.99962C11.3252 4.99962 12.5969 5.52636 13.5345 6.46397C14.4721 7.40158 14.9988 8.67325 14.9988 9.99923C14.9988 11.3252 14.4721 12.5969 13.5345 13.5345C12.5969 14.4721 11.3252 14.9988 9.99923 14.9988C8.67325 14.9988 7.40158 14.4721 6.46397 13.5345C5.52636 12.5969 4.99962 11.3252 4.99962 9.99923ZM15.3373 5.81494C15.6433 5.81494 15.9367 5.69338 16.1531 5.47701C16.3695 5.26064 16.491 4.96718 16.491 4.66118C16.491 4.35519 16.3695 4.06172 16.1531 3.84535C15.9367 3.62898 15.6433 3.50742 15.3373 3.50742C15.0313 3.50742 14.7378 3.62898 14.5215 3.84535C14.3051 4.06172 14.1835 4.35519 14.1835 4.66118C14.1835 4.96718 14.3051 5.26064 14.5215 5.47701C14.7378 5.69338 15.0313 5.81494 15.3373 5.81494Z" fill="black"/>
</svg>
