<svg width="20" height="20" viewBox="0 0 20 20" fill="none" xmlns="http://www.w3.org/2000/svg">
<path d="M18.3996 0.00179438H1.71246C1.49737 -0.00828305 1.28241 0.0241599 1.07988 0.0972663C0.877343 0.170373 0.691217 0.282707 0.532154 0.427838C0.37309 0.572969 0.244212 0.748047 0.152898 0.94305C0.0615838 1.13805 0.00962621 1.34915 0 1.56426V18.2889C0.0126001 18.7391 0.197064 19.1674 0.515522 19.4858C0.833981 19.8043 1.26227 19.9887 1.71246 20.0013H18.3996C18.8372 19.9818 19.2498 19.7916 19.5489 19.4715C19.848 19.1514 20.0098 18.7269 19.9995 18.2889V1.56426C20.0031 1.35489 19.9639 1.147 19.8843 0.953338C19.8046 0.759672 19.6863 0.584313 19.5365 0.438014C19.3867 0.291714 19.2086 0.177559 19.0131 0.102548C18.8176 0.0275374 18.6088 -0.00674823 18.3996 0.00179438ZM6.24986 16.6764H3.33742V7.76412H6.24986V16.6764ZM4.86239 6.41415C4.65915 6.42123 4.45665 6.38621 4.2676 6.31128C4.07854 6.23636 3.90703 6.12315 3.76382 5.97877C3.62061 5.83439 3.50881 5.66195 3.43543 5.47229C3.36205 5.28264 3.32868 5.07985 3.33742 4.87668C3.32844 4.67132 3.36248 4.46634 3.43736 4.2749C3.51224 4.08347 3.62631 3.9098 3.77225 3.76503C3.91819 3.62027 4.09278 3.50761 4.28482 3.43428C4.47686 3.36095 4.6821 3.32857 4.88739 3.33922C5.09062 3.33214 5.29313 3.36716 5.48218 3.44208C5.67123 3.51701 5.84275 3.63022 5.98596 3.7746C6.12916 3.91898 6.24097 4.09141 6.31435 4.28107C6.38773 4.47073 6.42109 4.67351 6.41235 4.87668C6.42134 5.08205 6.3873 5.28702 6.31242 5.47846C6.23754 5.6699 6.12347 5.84357 5.97752 5.98834C5.83158 6.1331 5.65699 6.24576 5.46496 6.31909C5.27292 6.39242 5.06767 6.4248 4.86239 6.41415ZM16.6746 16.6764H13.7497V11.8015C13.7497 10.6391 13.3372 9.83907 12.2997 9.83907C11.9774 9.84187 11.6639 9.94427 11.4021 10.1322C11.1402 10.3202 10.943 10.5846 10.8373 10.889C10.756 11.1173 10.722 11.3597 10.7373 11.6015V16.6764H7.86232V7.76412H10.7373V9.01409C10.9929 8.54452 11.3733 8.15474 11.8365 7.88783C12.2998 7.62092 12.8278 7.48726 13.3622 7.50162C15.2497 7.50162 16.6746 8.75159 16.6746 11.414V16.6764Z" fill="black"/>
</svg>
