<svg width="20" height="17" viewBox="0 0 20 17" fill="none" xmlns="http://www.w3.org/2000/svg">
<path d="M17.9401 4.10606V4.63371C17.9496 6.1661 17.6547 7.68512 17.0726 9.10269C16.4905 10.5203 15.6329 11.8082 14.5493 12.8918C13.4657 13.9753 12.1778 14.833 10.7602 15.4151C9.34263 15.9972 7.82361 16.292 6.29122 16.2826C4.06103 16.2891 1.87641 15.6513 0 14.446H1.01471C2.85485 14.446 4.64164 13.8278 6.08828 12.6905C5.23078 12.6829 4.39775 12.4038 3.70867 11.8934C3.0196 11.3829 2.50989 10.6674 2.25266 9.84933C2.51105 9.89054 2.77234 9.9109 3.03399 9.91022C3.39639 9.90761 3.7573 9.86335 4.10959 9.77831C3.1928 9.59117 2.36883 9.09302 1.77712 8.36818C1.18542 7.64334 0.862315 6.73632 0.862506 5.80063C1.42982 6.11357 2.06196 6.29071 2.70928 6.31813C2.13812 5.94032 1.67015 5.42607 1.3477 4.82192C1.02525 4.21777 0.858491 3.54277 0.862506 2.85796C0.863771 2.1451 1.05276 1.44515 1.41045 0.828535C2.43707 2.09454 3.71815 3.1308 5.17073 3.8702C6.62331 4.6096 8.215 5.03566 9.84272 5.12077C9.77833 4.81368 9.74435 4.50099 9.74125 4.18724C9.71482 3.352 9.94683 2.52896 10.4056 1.83051C10.8644 1.13206 11.5276 0.592233 12.3046 0.284752C13.0816 -0.0227289 13.9346 -0.0828793 14.7471 0.112514C15.5596 0.307908 16.292 0.749321 16.8442 1.37648C17.7626 1.19201 18.6417 0.84862 19.4419 0.361767C19.1363 1.30866 18.4935 2.11031 17.6357 2.61443C18.4512 2.5263 19.2485 2.31415 20 1.98531C19.4436 2.79805 18.7581 3.51441 17.9706 4.10606H17.9401Z" fill="black"/>
</svg>
